<svg width="99.468" height="35.964" viewBox="0 0 99.468 35.964" xmlns="http://www.w3.org/2000/svg"><g id="svgGroup" stroke-linecap="round" fill-rule="evenodd" font-size="9pt" stroke="#fff" stroke-width="0.25mm" fill="#fff" style="stroke:#fff;stroke-width:0.25mm;fill:#fff"><path d="M 58.356 2.052 L 56.592 5.652 A 7.566 7.566 0 0 0 52.991 3.908 A 10.779 10.779 0 0 0 50.868 3.708 A 8.651 8.651 0 0 0 47.339 4.426 A 8.392 8.392 0 0 0 46.368 4.932 A 8.332 8.332 0 0 0 43.433 7.991 A 10.101 10.101 0 0 0 43.2 8.424 A 10.494 10.494 0 0 0 42.197 11.625 A 13.694 13.694 0 0 0 42.048 13.68 Q 42.048 16.416 43.074 18.648 Q 44.1 20.88 46.08 22.176 A 7.877 7.877 0 0 0 49.277 23.364 A 10.311 10.311 0 0 0 50.796 23.472 A 11.346 11.346 0 0 0 56.081 22.143 A 13.868 13.868 0 0 0 56.916 21.672 L 58.104 25.092 A 3.569 3.569 0 0 1 57.555 25.493 Q 56.932 25.871 55.931 26.233 A 18.622 18.622 0 0 1 55.206 26.478 A 14.927 14.927 0 0 1 55.173 26.488 A 14.066 14.066 0 0 1 50.94 27.144 A 15.435 15.435 0 0 1 47.334 26.741 A 12.075 12.075 0 0 1 43.83 25.308 Q 40.824 23.472 39.24 20.394 A 14.438 14.438 0 0 1 37.67 14.298 A 16.96 16.96 0 0 1 37.656 13.608 A 15.436 15.436 0 0 1 38.197 9.456 A 13.256 13.256 0 0 1 39.366 6.588 Q 41.076 3.492 44.172 1.746 A 13.61 13.61 0 0 1 49.75 0.061 A 16.663 16.663 0 0 1 51.192 0 A 14.539 14.539 0 0 1 53.406 0.163 A 12.317 12.317 0 0 1 54.486 0.378 A 18.107 18.107 0 0 1 55.56 0.677 Q 56.081 0.84 56.523 1.02 A 8.817 8.817 0 0 1 57.024 1.242 A 13.081 13.081 0 0 1 57.479 1.471 Q 58.112 1.808 58.356 2.052 Z M 85.284 35.964 L 88.848 27.396 L 82.008 10.368 L 86.4 10.368 L 89.928 20.88 L 90.72 23.436 L 91.512 20.88 L 95.22 10.368 L 99.468 10.368 L 89.316 35.964 L 85.284 35.964 Z M 0 26.892 L 0 0.432 L 12.42 0.432 L 12.42 3.924 L 3.996 3.924 L 3.996 11.412 L 10.548 11.412 L 10.548 14.94 L 3.996 14.94 L 3.996 26.892 L 0 26.892 Z M 27.756 26.892 L 27.756 13.536 L 24.84 13.536 L 24.84 10.368 L 27.756 10.368 L 27.756 3.636 L 31.68 2.772 L 31.68 10.368 L 35.496 10.368 L 35.496 13.536 L 31.68 13.536 L 31.68 26.892 L 27.756 26.892 Z M 73.188 26.892 L 73.188 13.536 L 70.272 13.536 L 70.272 10.368 L 73.188 10.368 L 73.188 3.636 L 77.112 2.772 L 77.112 10.368 L 80.928 10.368 L 80.928 13.536 L 77.112 13.536 L 77.112 26.892 L 73.188 26.892 Z M 16.884 26.892 L 16.884 10.368 L 20.916 10.368 L 20.916 26.892 L 16.884 26.892 Z M 62.316 26.892 L 62.316 10.368 L 66.348 10.368 L 66.348 26.892 L 62.316 26.892 Z M 18.864 7.272 Q 17.748 7.272 16.992 6.516 A 2.537 2.537 0 0 1 16.236 4.679 A 3.273 3.273 0 0 1 16.236 4.644 A 2.292 2.292 0 0 1 16.943 2.964 A 2.937 2.937 0 0 1 16.992 2.916 A 2.585 2.585 0 0 1 18.743 2.198 A 3.371 3.371 0 0 1 18.864 2.196 Q 19.944 2.196 20.7 2.916 Q 21.456 3.636 21.456 4.644 A 2.78 2.78 0 0 1 21.277 5.655 A 2.532 2.532 0 0 1 20.718 6.516 A 2.47 2.47 0 0 1 18.933 7.271 A 3.243 3.243 0 0 1 18.864 7.272 Z M 64.296 7.272 Q 63.18 7.272 62.424 6.516 A 2.537 2.537 0 0 1 61.668 4.679 A 3.273 3.273 0 0 1 61.668 4.644 A 2.292 2.292 0 0 1 62.375 2.964 A 2.937 2.937 0 0 1 62.424 2.916 A 2.585 2.585 0 0 1 64.175 2.198 A 3.371 3.371 0 0 1 64.296 2.196 Q 65.376 2.196 66.132 2.916 Q 66.888 3.636 66.888 4.644 A 2.78 2.78 0 0 1 66.709 5.655 A 2.532 2.532 0 0 1 66.15 6.516 A 2.47 2.47 0 0 1 64.365 7.271 A 3.243 3.243 0 0 1 64.296 7.272 Z" vector-effect="non-scaling-stroke"/></g></svg>